<svg width="23" height="22" viewBox="0 0 23 22" fill="none" xmlns="http://www.w3.org/2000/svg">
<path d="M22.5078 6.48382V0.413574C18.611 0.413574 14.8117 1.72474 12.0839 4.00716L11.3533 4.58991L10.6226 4.00716C7.84617 1.72474 4.09552 0.413574 0.198746 0.413574V6.48382C0.198746 8.13493 0.783269 9.68891 1.75746 11.0001C0.783269 12.3113 0.198746 13.8652 0.198746 15.5164V21.5866C4.09552 21.5866 7.89488 20.2754 10.6226 17.993L11.3533 17.4103C9.45359 16.2933 8.28456 14.3023 8.28456 12.0684V9.93173C8.28456 7.74644 9.45359 5.70683 11.3533 4.58991C13.253 5.70683 14.422 7.74644 14.422 9.93173V12.0684C14.422 14.2537 13.253 16.2933 11.3533 17.4103L12.0839 17.993C14.8604 20.2754 18.611 21.5866 22.5078 21.5866V15.5164C22.5078 13.8652 21.9233 12.3113 20.9491 11.0001C21.9233 9.68891 22.5078 8.13493 22.5078 6.48382Z" fill="#FF4F00"/>
</svg>
